<svg width="12" height="14" viewBox="0 0 12 14" fill="none" xmlns="http://www.w3.org/2000/svg">
<mask id="mask0_1_2513" style="mask-type:alpha" maskUnits="userSpaceOnUse" x="-10" y="-35" width="42" height="49">
<path d="M9.96692 -34.307L-7.63519 -2.0852C-9.97836 1.67841 -9.74173 6.57888 -6.85391 10.1354C-4.8091 12.6535 -1.64929 14 1.59476 14H25.1037C28.6802 14 31.5532 10.9849 31.3178 7.35758C31.1037 4.0473 28.2069 1.54466 24.8902 1.54466H5.81428C5.32751 1.54466 5.01693 1.0251 5.24842 0.596845L18.6857 -25.4867C18.8953 -25.8757 19.2901 -26.2326 19.7312 -26.2545C19.7312 -26.2545 12.5011 -35.8869 9.96692 -34.307Z" fill="white"/>
</mask>
<g mask="url(#mask0_1_2513)">
<path fill-rule="evenodd" clip-rule="evenodd" d="M11.0034 11.744C10.9802 11.744 10.9564 11.7376 10.9339 11.7247L10.9217 11.6566V11.5614L11.0658 11.535L11.0947 11.6958C11.0728 11.7279 11.0394 11.744 11.0034 11.744Z" fill="#DC402E"/>
<path fill-rule="evenodd" clip-rule="evenodd" d="M10.9217 11.6567L10.905 11.5648L10.9217 11.5615V11.6567Z" fill="#FFFFFE"/>
<path fill-rule="evenodd" clip-rule="evenodd" d="M3.67506 14H3.63197L3.5471 13.9787L3.45836 13.9112C3.43521 13.8527 3.46351 13.7935 3.52266 13.7633L3.6159 13.7697L3.74 13.8585C3.749 13.9286 3.7265 13.9781 3.67506 14Z" fill="#B2A184"/>
<path fill-rule="evenodd" clip-rule="evenodd" d="M2.57252 11.5984C2.57124 11.5984 2.56931 11.5984 2.56802 11.5984C2.50501 11.5971 2.46579 11.5347 2.46772 11.4724C2.46901 11.4216 2.5198 11.3695 2.57317 11.3695C2.58024 11.3695 2.58731 11.3701 2.59438 11.372C2.6664 11.392 2.70176 11.4363 2.69404 11.4987C2.68633 11.5598 2.63682 11.5984 2.57252 11.5984Z" fill="#B2A184"/>
<path fill-rule="evenodd" clip-rule="evenodd" d="M2.12785 11.7957C2.08219 11.7957 2.04747 11.7739 2.02753 11.7314C2.00052 11.6729 2.02496 11.6112 2.08348 11.5771L2.23782 11.6324C2.26676 11.6819 2.24361 11.7681 2.18187 11.7867C2.16258 11.7925 2.14457 11.7957 2.12785 11.7957Z" fill="#B2A184"/>
<path fill-rule="evenodd" clip-rule="evenodd" d="M3.72405 13.4835C3.71697 13.4835 3.7099 13.4829 3.70282 13.4822C3.63914 13.4739 3.60634 13.4057 3.6147 13.3421C3.62049 13.2938 3.67195 13.2482 3.72405 13.2482C3.7337 13.2482 3.74399 13.2501 3.75364 13.254C3.82568 13.2816 3.8572 13.3305 3.8424 13.3935C3.83018 13.4501 3.78194 13.4835 3.72405 13.4835Z" fill="#B2A184"/>
<path fill-rule="evenodd" clip-rule="evenodd" d="M6.08882 13.5724C6.03931 13.5724 5.99623 13.5389 5.97565 13.4862C5.9525 13.4257 5.99751 13.3647 6.05731 13.3421C6.0676 13.3383 6.07853 13.3364 6.09011 13.3364C6.13962 13.3364 6.19556 13.3717 6.20199 13.4238C6.21163 13.5003 6.1827 13.5511 6.12033 13.5679C6.11004 13.5711 6.09911 13.5724 6.08882 13.5724Z" fill="#B2A184"/>
<path fill-rule="evenodd" clip-rule="evenodd" d="M1.47223 12.3813L1.36162 12.3222L1.42143 12.211L1.5314 12.2707L1.47223 12.3813Z" fill="#B2A184"/>
<path fill-rule="evenodd" clip-rule="evenodd" d="M1.078 13.5216C1.00407 13.5216 0.921144 13.4599 0.923072 13.3795C0.925001 13.274 0.973858 13.211 1.06257 13.1994C1.06964 13.1988 1.07671 13.1981 1.08379 13.1981C1.16157 13.1981 1.22393 13.2547 1.24257 13.339C1.26186 13.4258 1.18986 13.4997 1.10307 13.519C1.09536 13.521 1.08636 13.5216 1.078 13.5216Z" fill="#B2A184"/>
<path fill-rule="evenodd" clip-rule="evenodd" d="M3.22096 12.3128L3.10909 12.273L3.1496 12.1604L3.26147 12.2009L3.22096 12.3128Z" fill="#B2A184"/>
<path fill-rule="evenodd" clip-rule="evenodd" d="M4.93042 12.8444C4.91241 12.8444 4.89376 12.8411 4.87576 12.8341C4.81273 12.8109 4.79601 12.735 4.81981 12.672L4.94392 12.6032L4.93492 12.4386C4.95614 12.3827 5.02302 12.3402 5.08669 12.3402C5.11177 12.3402 5.13685 12.3473 5.15807 12.3614C5.2481 12.4232 5.27575 12.5016 5.2346 12.5846C5.20566 12.6437 5.15035 12.6752 5.08733 12.6752C5.06932 12.6752 5.05003 12.672 5.03138 12.6669L5.03846 12.7781C5.01659 12.8212 4.97608 12.8444 4.93042 12.8444Z" fill="#B2A184"/>
<path fill-rule="evenodd" clip-rule="evenodd" d="M0.857129 13.4493L0.832035 13.4094L0.871928 13.3843L0.897023 13.4242L0.857129 13.4493Z" fill="#B2A184"/>
<path fill-rule="evenodd" clip-rule="evenodd" d="M0.289001 12.3865L0.277427 12.2586L0.40475 12.2476L0.416324 12.375L0.289001 12.3865Z" fill="#B2A184"/>
<path fill-rule="evenodd" clip-rule="evenodd" d="M5.03425 13.9221L4.98731 13.7807L5.12812 13.7343L5.17442 13.8758L5.03425 13.9221Z" fill="#B2A184"/>
<path fill-rule="evenodd" clip-rule="evenodd" d="M4.77559 13.7814C4.74408 13.7814 4.71258 13.7724 4.68108 13.7538C4.59106 13.6997 4.56792 13.593 4.61485 13.494C4.64443 13.4322 4.70551 13.4039 4.77045 13.4039C4.80581 13.4039 4.84181 13.4123 4.87524 13.4284C4.95947 13.4689 5.0064 13.6071 4.94018 13.6882C4.88939 13.7499 4.83345 13.7814 4.77559 13.7814Z" fill="#B2A184"/>
<path fill-rule="evenodd" clip-rule="evenodd" d="M4.07564 14H4.05568L4.07114 13.9917L4.07564 14Z" fill="#B2A184"/>
<path fill-rule="evenodd" clip-rule="evenodd" d="M2.93484 13.2982C2.9162 13.2982 2.8969 13.2957 2.87826 13.2905C2.80237 13.2687 2.74386 13.1613 2.78694 13.0848C2.82552 13.0172 2.87633 12.9825 2.93356 12.9825C2.95285 12.9825 2.97278 12.9864 2.99336 12.9941C3.07503 13.0262 3.10847 13.1105 3.08339 13.1992C3.06538 13.2654 3.00172 13.2982 2.93484 13.2982Z" fill="#B2A184"/>
<path fill-rule="evenodd" clip-rule="evenodd" d="M2.52597 13.9999H2.23276C2.21346 13.9266 2.23597 13.8668 2.29706 13.8289C2.32213 13.8134 2.3485 13.8057 2.3755 13.8057C2.42502 13.8057 2.47324 13.8314 2.50925 13.8784C2.5369 13.915 2.54012 13.9594 2.52597 13.9999Z" fill="#B2A184"/>
<path fill-rule="evenodd" clip-rule="evenodd" d="M2.60874 13.1036L2.50714 13.0612L2.5483 12.9596L2.65118 13.0014L2.60874 13.1036Z" fill="#B2A184"/>
<path fill-rule="evenodd" clip-rule="evenodd" d="M2.87123 12.3825C2.78892 12.3825 2.72783 12.3426 2.69567 12.2654C2.65388 12.1658 2.70018 12.0622 2.80113 12.0082C2.82493 11.9954 2.85 11.9896 2.87444 11.9896C2.94839 11.9896 3.02041 12.0417 3.05835 12.1137L3.06864 12.1407L3.08279 12.1677L3.07314 12.2256C3.06157 12.2911 3.01912 12.3542 2.95289 12.3709C2.92395 12.3786 2.89695 12.3825 2.87123 12.3825Z" fill="#B2A184"/>
<path fill-rule="evenodd" clip-rule="evenodd" d="M2.34309 13.2405C2.34117 13.2405 2.33924 13.2405 2.33666 13.2405C2.25243 13.2373 2.20163 13.1544 2.20484 13.0701C2.20741 13.0032 2.27493 12.9344 2.34631 12.9344C2.35596 12.9344 2.3656 12.9357 2.37525 12.9383C2.47106 12.9653 2.51736 13.0251 2.50707 13.1087C2.49678 13.1897 2.42862 13.2405 2.34309 13.2405Z" fill="#B2A184"/>
<path fill-rule="evenodd" clip-rule="evenodd" d="M1.63071 13.4377C1.60113 13.3978 1.55227 13.3702 1.50662 13.3702C1.50341 13.3702 1.50019 13.3702 1.49698 13.3708C1.4629 13.374 1.43011 13.3856 1.40375 13.4036C1.40054 13.3991 1.39796 13.3946 1.39539 13.3901C1.3491 13.2969 1.36003 13.2184 1.42175 13.1638L1.34396 13.1451C1.25588 13.1014 1.2263 13.0024 1.26359 12.904C1.28931 12.839 1.35232 12.8075 1.42047 12.8075C1.44876 12.8075 1.47769 12.8133 1.50469 12.8236L1.60499 12.9528L1.64806 13.0133L1.58506 13.0647L1.53812 13.1168L1.68021 13.1901C1.74193 13.2634 1.71107 13.3708 1.63713 13.4319C1.63521 13.4339 1.63263 13.4358 1.63071 13.4377Z" fill="#B2A184"/>
<path fill-rule="evenodd" clip-rule="evenodd" d="M1.80119 12.5845C1.70732 12.5845 1.60187 12.5086 1.60058 12.4076C1.59866 12.2713 1.65909 12.1864 1.77226 12.1684C1.78447 12.1665 1.79604 12.1652 1.80762 12.1652C1.90535 12.1652 1.98443 12.2347 2.01144 12.3395C2.04101 12.4514 1.95164 12.5504 1.84041 12.5793C1.82755 12.5825 1.81469 12.5845 1.80119 12.5845Z" fill="#B2A184"/>
<path fill-rule="evenodd" clip-rule="evenodd" d="M1.1632 12.3719L1.12786 12.3365L1.1632 12.3024L1.19855 12.3365L1.1632 12.3719Z" fill="#B2A184"/>
<path fill-rule="evenodd" clip-rule="evenodd" d="M0.759557 12.9648L0.7062 12.9616L0.709415 12.9076L0.763414 12.9108L0.759557 12.9648Z" fill="#B2A184"/>
<path fill-rule="evenodd" clip-rule="evenodd" d="M0.176188 13.1957C0.156898 13.1957 0.136321 13.1912 0.115101 13.1822L0.0520844 13.1243L0 13.0034C0.00835929 12.8819 0.0694462 12.8118 0.17233 12.8041L0.21284 12.8092L0.260424 12.7494C0.285502 12.7288 0.314438 12.7192 0.34466 12.7192C0.396101 12.7192 0.450116 12.7475 0.486125 12.7912C0.537567 12.8536 0.524706 12.9777 0.444329 13.0176L0.368452 13.0414L0.279715 13.1481C0.248849 13.1796 0.214127 13.1957 0.176188 13.1957Z" fill="#B2A184"/>
<path fill-rule="evenodd" clip-rule="evenodd" d="M3.02367 8.28851L2.96707 8.21713L3.03782 8.16054L3.09442 8.23192L3.02367 8.28851Z" fill="#B2A184"/>
<path fill-rule="evenodd" clip-rule="evenodd" d="M3.48895 14.0002H3.30827C3.30956 13.9963 3.31084 13.9924 3.31277 13.9886C3.32949 13.9474 3.37 13.9281 3.41243 13.9281C3.43172 13.9281 3.45165 13.932 3.4703 13.9397L3.48895 14.0002Z" fill="#B2A184"/>
<path fill-rule="evenodd" clip-rule="evenodd" d="M1.49816 13.6885C1.41072 13.6885 1.34771 13.6223 1.33806 13.5303C1.33356 13.477 1.36121 13.4319 1.40364 13.4036C1.43 13.3856 1.46279 13.3741 1.49687 13.3709C1.50008 13.3702 1.5033 13.3702 1.50651 13.3702C1.55216 13.3702 1.60102 13.3979 1.6306 13.4377C1.64989 13.4641 1.66082 13.4956 1.65632 13.529C1.64089 13.6313 1.58559 13.6879 1.49816 13.6885Z" fill="#B2A184"/>
<path fill-rule="evenodd" clip-rule="evenodd" d="M1.95161 13.2168C1.88923 13.1757 1.86994 13.1229 1.89566 13.0663C1.91495 13.0245 1.95354 13.002 1.99727 13.002C2.01271 13.002 2.02943 13.0046 2.04551 13.0104C2.10467 13.031 2.12204 13.1017 2.10146 13.1609L1.95161 13.2168Z" fill="#B2A184"/>
<path fill-rule="evenodd" clip-rule="evenodd" d="M3.62007 6.99491L3.51015 6.98012L3.52429 6.87018L3.63485 6.88496L3.62007 6.99491Z" fill="#B2A184"/>
<path fill-rule="evenodd" clip-rule="evenodd" d="M2.78642 11.2289L2.7755 11.1852L2.81856 11.1756L2.82949 11.218L2.78642 11.2289Z" fill="#B2A184"/>
<path fill-rule="evenodd" clip-rule="evenodd" d="M0.404007 5.41593L0.310787 5.37992L0.346147 5.28669L0.44001 5.32205L0.404007 5.41593Z" fill="#B2A184"/>
<path fill-rule="evenodd" clip-rule="evenodd" d="M0.507272 0.125391L0.414055 0.0919545L0.447485 0L0.540059 0.0327938L0.507272 0.125391Z" fill="#B2A184"/>
</g>
</svg>
