<svg width="9" height="40" viewBox="0 0 9 40" fill="none" xmlns="http://www.w3.org/2000/svg">
<mask id="mask0_1_2679" style="mask-type:alpha" maskUnits="userSpaceOnUse" x="-12" y="-17" width="29" height="96">
<path d="M-5.2815 78.6288L-11.5114 -6.55752C-12.1386 -11.7191 -12.2739 -16.2099 -7.11233 -16.8371C-1.94883 -17.4681 4.77489 -13.8962 5.40205 -8.73399L16.7647 76.181L-5.2815 78.6288Z" fill="white"/>
</mask>
<g mask="url(#mask0_1_2679)">
<path fill-rule="evenodd" clip-rule="evenodd" d="M3.3838 34.8775L3.28507 34.8044L3.35816 34.7062L3.45689 34.7793L3.3838 34.8775Z" fill="#DC402E"/>
<path fill-rule="evenodd" clip-rule="evenodd" d="M1.72574 39.5093C1.66996 39.5093 1.62443 39.4702 1.6084 39.4093C1.59044 39.3451 1.6411 39.2874 1.70586 39.2701C1.71356 39.2682 1.72126 39.2669 1.72959 39.2669C1.78281 39.2669 1.84309 39.3099 1.84501 39.3676C1.84758 39.4464 1.81295 39.4958 1.7469 39.5074C1.73985 39.5086 1.7328 39.5093 1.72574 39.5093Z" fill="#DC402E"/>
<path fill-rule="evenodd" clip-rule="evenodd" d="M2.26852 31.215L2.17423 31.1906L2.19796 31.0969L2.29226 31.1207L2.26852 31.215Z" fill="#DC402E"/>
<path fill-rule="evenodd" clip-rule="evenodd" d="M3.54901 37.642L3.49643 37.5298L3.60929 37.4772L3.66187 37.5894L3.54901 37.642Z" fill="#DC402E"/>
<path fill-rule="evenodd" clip-rule="evenodd" d="M3.18777 23.3344C3.15827 23.3344 3.12813 23.3267 3.09864 23.31C3.0249 23.2703 3.01721 23.1728 3.0576 23.0991C3.08133 23.0568 3.13519 23.0292 3.18777 23.0292C3.21726 23.0292 3.24611 23.0382 3.26856 23.0587C3.34229 23.1254 3.3564 23.1997 3.30959 23.2696C3.2801 23.3126 3.23585 23.3344 3.18777 23.3344Z" fill="#DC402E"/>
<path fill-rule="evenodd" clip-rule="evenodd" d="M2.1184 19.1158C2.09724 19.1158 2.07479 19.1107 2.05299 19.0998C1.99334 19.071 1.98308 18.9947 2.01258 18.935L2.17804 18.8953C2.23832 18.9453 2.25179 19.0036 2.2178 19.0601C2.19535 19.0972 2.1588 19.1158 2.1184 19.1158Z" fill="#DC402E"/>
<path fill-rule="evenodd" clip-rule="evenodd" d="M5.70557 24.4567L5.70172 24.3278L5.83063 24.324L5.83512 24.4535L5.70557 24.4567Z" fill="#DC402E"/>
<path fill-rule="evenodd" clip-rule="evenodd" d="M8.94429 21.2216L8.8295 21.1658L8.88593 21.051L9.00009 21.1074L8.94429 21.2216Z" fill="#DC402E"/>
<path fill-rule="evenodd" clip-rule="evenodd" d="M0.394698 18.075C0.372897 18.075 0.349812 18.0711 0.326729 18.0634C0.244012 18.0346 0.218363 17.9352 0.247859 17.8512C0.267096 17.796 0.331859 17.7537 0.394698 17.7537C0.417141 17.7537 0.439583 17.7589 0.459461 17.7723C0.547949 17.8294 0.575522 17.9038 0.538972 17.9839C0.512041 18.0436 0.456896 18.075 0.394698 18.075Z" fill="#DC402E"/>
<path fill-rule="evenodd" clip-rule="evenodd" d="M2.87538 15.2763L2.71314 15.2359L2.75418 15.0743C2.77085 15.0615 2.7933 15.0558 2.81574 15.0558C2.85742 15.0558 2.89975 15.0756 2.91642 15.1141C2.94528 15.1853 2.93117 15.243 2.87538 15.2763Z" fill="#DC402E"/>
<path fill-rule="evenodd" clip-rule="evenodd" d="M3.95016 17.4878L3.91938 17.3916L4.01493 17.3609L4.04636 17.4571L3.95016 17.4878Z" fill="#DC402E"/>
<path fill-rule="evenodd" clip-rule="evenodd" d="M6.53203 25.5162L6.48134 25.5111L6.48583 25.4604L6.53652 25.4655L6.53203 25.5162Z" fill="#DC402E"/>
<path fill-rule="evenodd" clip-rule="evenodd" d="M1.28524 17.8462C1.22304 17.8462 1.16854 17.8058 1.1416 17.7397C1.11018 17.6628 1.16533 17.5839 1.24164 17.5532C1.25574 17.5474 1.27113 17.5448 1.28652 17.5448C1.34936 17.5448 1.41862 17.5878 1.42823 17.6532C1.44298 17.7494 1.40772 17.8161 1.3282 17.8398C1.31345 17.8443 1.29935 17.8462 1.28524 17.8462Z" fill="#DC402E"/>
<path fill-rule="evenodd" clip-rule="evenodd" d="M2.24786 25.336C2.19976 25.336 2.16065 25.3136 2.13243 25.2693C2.08883 25.2007 2.10999 25.118 2.17732 25.0654C2.19977 25.0481 2.22477 25.0404 2.25042 25.0404C2.29916 25.0404 2.34854 25.0679 2.38188 25.1103C2.42677 25.1686 2.41074 25.2815 2.33635 25.3142C2.30493 25.329 2.27479 25.336 2.24786 25.336Z" fill="#DC402E"/>
<path fill-rule="evenodd" clip-rule="evenodd" d="M2.09645 19.6571C2.09516 19.6571 2.09452 19.6571 2.09324 19.6571C2.01116 19.6558 1.95473 19.5923 1.94767 19.5064C1.94062 19.4249 2.01629 19.3666 2.09773 19.3602C2.10029 19.3602 2.10286 19.3602 2.10542 19.3602C2.17789 19.3602 2.25612 19.4326 2.24394 19.5109C2.22855 19.6051 2.1766 19.6571 2.09645 19.6571Z" fill="#DC402E"/>
<path fill-rule="evenodd" clip-rule="evenodd" d="M0.274141 22.5846C0.256828 22.5846 0.239513 22.5807 0.223482 22.5724C0.138836 22.5275 0.107415 22.4615 0.134989 22.3858C0.156151 22.3243 0.210657 22.2909 0.273501 22.2909C0.288891 22.2909 0.305563 22.2928 0.321594 22.2967C0.399828 22.3166 0.430608 22.405 0.410088 22.4833C0.395981 22.5384 0.33442 22.5846 0.274141 22.5846Z" fill="#DC402E"/>
<path fill-rule="evenodd" clip-rule="evenodd" d="M2.80372 26.3584C2.80115 26.3584 2.79859 26.3584 2.79538 26.3578C2.71522 26.3539 2.66135 26.2904 2.6575 26.2058C2.65365 26.1256 2.72933 26.0711 2.80949 26.0679C2.81077 26.0679 2.81205 26.0679 2.81334 26.0679C2.88516 26.0679 2.96276 26.1429 2.94737 26.2199C2.93005 26.3097 2.87939 26.3584 2.80372 26.3584Z" fill="#DC402E"/>
<path fill-rule="evenodd" clip-rule="evenodd" d="M5.68774 23.3746C5.62426 23.3746 5.57937 23.3265 5.57296 23.2592C5.56719 23.197 5.6249 23.1508 5.68774 23.145C5.68967 23.145 5.69223 23.145 5.6948 23.145C5.74995 23.145 5.81151 23.2002 5.80253 23.2598C5.79163 23.3342 5.75059 23.3746 5.68774 23.3746Z" fill="#DC402E"/>
<path fill-rule="evenodd" clip-rule="evenodd" d="M3.08478 29.0067L3.01745 28.9034L3.12069 28.8361L3.18801 28.9393L3.08478 29.0067Z" fill="#DC402E"/>
<path fill-rule="evenodd" clip-rule="evenodd" d="M2.93225 7.59961L2.89954 7.52587L2.9733 7.49317L3.00601 7.56691L2.93225 7.59961Z" fill="#DC402E"/>
<path fill-rule="evenodd" clip-rule="evenodd" d="M1.07312 16.3759L0.957707 16.34L1.00516 16.1873C1.0199 16.1777 1.03914 16.1726 1.05838 16.1726C1.10005 16.1726 1.14366 16.1944 1.15776 16.2342C1.17636 16.288 1.17123 16.3323 1.14366 16.363L1.14302 16.3624C1.14045 16.3624 1.13789 16.3624 1.13532 16.3624C1.11352 16.3624 1.09172 16.3669 1.07312 16.3759Z" fill="#DC402E"/>
<path fill-rule="evenodd" clip-rule="evenodd" d="M0.111858 14.0026L0.091979 13.8442L0.250371 13.8237L0.270892 13.9827L0.111858 14.0026Z" fill="#DC402E"/>
<path fill-rule="evenodd" clip-rule="evenodd" d="M0.585511 16.1309C0.527165 16.084 0.511776 16.0283 0.543835 15.9731C0.565635 15.9359 0.601541 15.9173 0.641294 15.9173C0.660529 15.9173 0.681046 15.9218 0.701564 15.9314C0.75927 15.9584 0.77017 16.0315 0.743241 16.0892L0.585511 16.1309Z" fill="#DC402E"/>
<path fill-rule="evenodd" clip-rule="evenodd" d="M0.16391 18.4038C0.11966 18.4038 0.0792579 18.3769 0.0555299 18.3314L0.120301 18.1801C0.133127 18.1737 0.148519 18.1704 0.16391 18.1704C0.210083 18.1704 0.260104 18.198 0.271006 18.2448C0.288963 18.3186 0.265876 18.3718 0.206235 18.3955C0.192127 18.4013 0.178018 18.4038 0.16391 18.4038Z" fill="#DC402E"/>
<path fill-rule="evenodd" clip-rule="evenodd" d="M1.34927 20.3588L1.33516 20.1946L1.49934 20.1805L1.51345 20.344L1.34927 20.3588Z" fill="#DC402E"/>
<path fill-rule="evenodd" clip-rule="evenodd" d="M0.741271 17.2781L0.711125 17.1633L0.825293 17.1338L0.856081 17.248L0.741271 17.2781Z" fill="#DC402E"/>
<path fill-rule="evenodd" clip-rule="evenodd" d="M1.6289 19.0813C1.55644 19.0813 1.49744 19.0332 1.47243 18.9589L1.38522 19.0275C1.37881 19.0281 1.3724 19.0288 1.36663 19.0288C1.30891 19.0288 1.26339 18.9877 1.24735 18.9255C1.23196 18.8614 1.28455 18.8043 1.34867 18.7889L1.47564 18.8518L1.60517 18.7517C1.61479 18.7492 1.62441 18.7479 1.63467 18.7479C1.70969 18.7479 1.7937 18.8101 1.79434 18.8909C1.79434 18.9993 1.74496 19.0653 1.65455 19.0794C1.64557 19.0807 1.63723 19.0813 1.6289 19.0813Z" fill="#DC402E"/>
<path fill-rule="evenodd" clip-rule="evenodd" d="M0.27663 23.7505C0.225967 23.7505 0.174664 23.7293 0.131697 23.6896C0.0553821 23.6196 0.074621 23.501 0.145164 23.4247C0.175946 23.392 0.225326 23.3734 0.275347 23.3734C0.327933 23.3734 0.38052 23.3939 0.41002 23.4388C0.433748 23.4741 0.448498 23.5087 0.454911 23.542C0.442726 23.5395 0.430542 23.5382 0.418357 23.5382C0.356793 23.5382 0.299075 23.569 0.283684 23.6299C0.272782 23.6735 0.277271 23.7158 0.29651 23.7492C0.289456 23.7498 0.283043 23.7505 0.27663 23.7505Z" fill="#DC402E"/>
<path fill-rule="evenodd" clip-rule="evenodd" d="M0.548795 19.7597C0.498778 19.7597 0.459662 19.7232 0.446196 19.6699L0.535971 19.552L0.653317 19.6417C0.652676 19.7091 0.621255 19.7514 0.564185 19.7584C0.559055 19.7591 0.553925 19.7597 0.548795 19.7597Z" fill="#DC402E"/>
<path fill-rule="evenodd" clip-rule="evenodd" d="M0.595833 19.4616C0.592627 19.4616 0.589421 19.4616 0.585574 19.4609C0.463094 19.4513 0.392556 19.3891 0.385502 19.2852C0.378448 19.182 0.452834 19.1031 0.561206 19.0858C0.569542 19.0845 0.577878 19.0839 0.585574 19.0839C0.676632 19.0839 0.746529 19.1666 0.761277 19.2609C0.775385 19.3506 0.695227 19.4616 0.595833 19.4616Z" fill="#DC402E"/>
<path fill-rule="evenodd" clip-rule="evenodd" d="M0.642472 17.1266C0.605917 17.1266 0.570004 17.1164 0.541787 17.0913C0.44559 17.0073 0.424428 16.9124 0.483428 16.8213C0.520624 16.7636 0.578982 16.7341 0.642472 16.7341C0.679026 16.7341 0.716222 16.7437 0.752777 16.7623C0.848973 16.8124 0.861799 16.9368 0.811777 17.0323L0.795103 17.0554L0.782277 17.083L0.728407 17.1074C0.701472 17.1202 0.671972 17.1266 0.642472 17.1266Z" fill="#DC402E"/>
<path fill-rule="evenodd" clip-rule="evenodd" d="M0.418801 23.8187C0.402767 23.8187 0.386733 23.8155 0.369415 23.8097C0.336064 23.7982 0.311691 23.7764 0.296298 23.7488C0.277057 23.7155 0.272567 23.6732 0.283471 23.6296C0.298864 23.5687 0.356588 23.5379 0.41816 23.5379C0.430346 23.5379 0.442532 23.5392 0.454718 23.5417C0.457284 23.5424 0.460491 23.543 0.463056 23.5437C0.531684 23.561 0.585559 23.6546 0.549642 23.7238C0.516291 23.786 0.471394 23.8187 0.418801 23.8187Z" fill="#DC402E"/>
<path fill-rule="evenodd" clip-rule="evenodd" d="M3.93039 21.8493C3.91885 21.8493 3.9073 21.8473 3.89576 21.8435C3.83676 21.8255 3.80791 21.7684 3.82137 21.7043C3.83099 21.6543 3.87973 21.6274 3.93039 21.6274C3.94065 21.6274 3.95027 21.628 3.96053 21.6299L4.03428 21.7691C4.00991 21.8217 3.97336 21.8493 3.93039 21.8493Z" fill="#DC402E"/>
<path fill-rule="evenodd" clip-rule="evenodd" d="M1.50881 10.1277L1.46457 10.0149L1.57742 9.97061L1.62167 10.0822L1.50881 10.1277Z" fill="#DC402E"/>
<path fill-rule="evenodd" clip-rule="evenodd" d="M5.74828 6.39612L5.73866 6.31853L5.81628 6.30955L5.8259 6.38714L5.74828 6.39612Z" fill="#DC402E"/>
<path fill-rule="evenodd" clip-rule="evenodd" d="M1.57186 14.0643C1.52185 14.0643 1.48016 14.029 1.46413 13.9752C1.44682 13.9168 1.49235 13.8629 1.55134 13.8463C1.5584 13.8437 1.56673 13.8424 1.57507 13.8424C1.62317 13.8424 1.67767 13.8802 1.68024 13.9322C1.68345 14.0047 1.65266 14.0502 1.59303 14.0624C1.58597 14.0636 1.57892 14.0643 1.57186 14.0643Z" fill="#DC402E"/>
<path fill-rule="evenodd" clip-rule="evenodd" d="M1.41398 11.609C1.38063 11.609 1.35241 11.5942 1.33125 11.5641L1.3569 11.4108L1.51018 11.4365L1.48453 11.5898C1.45951 11.6026 1.43578 11.609 1.41398 11.609Z" fill="#DC402E"/>
<path fill-rule="evenodd" clip-rule="evenodd" d="M0.615939 10.8685L0.595417 10.7146L0.749971 10.6947L0.76985 10.8486L0.615939 10.8685Z" fill="#DC402E"/>
<path fill-rule="evenodd" clip-rule="evenodd" d="M1.32618 10.4933C1.25948 10.4657 1.23061 10.4189 1.24473 10.3592C1.25755 10.3067 1.30245 10.2765 1.35697 10.2765C1.36403 10.2765 1.37108 10.2765 1.37878 10.2778C1.38327 10.2784 1.38712 10.2791 1.39097 10.2804C1.38135 10.333 1.41406 10.3849 1.45832 10.4125L1.32618 10.4933Z" fill="#DC402E"/>
<path fill-rule="evenodd" clip-rule="evenodd" d="M1.33514 13.6815L1.17674 13.6764C1.13506 13.6155 1.13634 13.5597 1.18187 13.518L1.34027 13.5232L1.33514 13.6815Z" fill="#DC402E"/>
<path fill-rule="evenodd" clip-rule="evenodd" d="M0.178853 15.6787C0.122415 15.6787 0.0788035 15.6364 0.0672594 15.5754C0.0563566 15.5139 0.108305 15.4639 0.169874 15.453C0.174363 15.4523 0.179494 15.4517 0.184625 15.4517C0.236574 15.4517 0.295577 15.4985 0.29237 15.5556C0.287881 15.6293 0.251966 15.6723 0.189755 15.678C0.185907 15.6787 0.182701 15.6787 0.178853 15.6787Z" fill="#DC402E"/>
<path fill-rule="evenodd" clip-rule="evenodd" d="M0.790682 17.8736C0.754763 17.8736 0.724616 17.8563 0.702808 17.8236L0.736161 17.6671L0.892667 17.6992L0.859955 17.8563C0.835581 17.8678 0.811849 17.8736 0.790682 17.8736Z" fill="#DC402E"/>
<path fill-rule="evenodd" clip-rule="evenodd" d="M0.539304 13.2203L0.420021 13.1991L0.441826 13.0792L0.561109 13.1016L0.539304 13.2203Z" fill="#DC402E"/>
<path fill-rule="evenodd" clip-rule="evenodd" d="M1.11548 14.7908L1.00003 14.7863L1.00452 14.6722L1.11933 14.676L1.11548 14.7908Z" fill="#DC402E"/>
<path fill-rule="evenodd" clip-rule="evenodd" d="M1.37208 16.7205C1.3631 16.7205 1.35477 16.7198 1.34515 16.7186C1.26306 16.707 1.2124 16.6403 1.20919 16.5557L1.10915 16.5948C1.04502 16.5852 1.00655 16.53 1.00975 16.4621C1.01168 16.4217 1.03733 16.3915 1.0726 16.3755C1.0912 16.3665 1.113 16.3621 1.13481 16.3621C1.13737 16.3621 1.13994 16.3621 1.1425 16.3621L1.14314 16.3627L1.2419 16.4563L1.39132 16.3999C1.47148 16.4037 1.55356 16.4967 1.52791 16.582C1.50034 16.6724 1.44583 16.7205 1.37208 16.7205Z" fill="#DC402E"/>
<path fill-rule="evenodd" clip-rule="evenodd" d="M0.113412 12.2259L0.0730111 12.1304L0.073652 12.1285L0.071728 12.1278L0.0653149 12.1124L0.179465 12.0644L0.227562 12.1785L0.113412 12.2259Z" fill="#DC402E"/>
<path fill-rule="evenodd" clip-rule="evenodd" d="M0.159082 17.0469C0.153311 17.0469 0.14754 17.0463 0.141127 17.0456C0.0853392 17.0367 0.0532773 16.9886 0.0564835 16.9296L0.172548 16.8449L0.256551 16.961C0.239237 17.0168 0.205251 17.0469 0.159082 17.0469Z" fill="#DC402E"/>
<path fill-rule="evenodd" clip-rule="evenodd" d="M0.291832 16.7834C0.2758 16.7834 0.259769 16.7809 0.244379 16.7745C0.1328 16.7309 0.0847046 16.6539 0.107149 16.5552C0.127669 16.4673 0.202055 16.416 0.292472 16.416C0.304015 16.416 0.314916 16.4166 0.326459 16.4179C0.426495 16.4314 0.477155 16.5372 0.463689 16.6372C0.453429 16.7123 0.373272 16.7834 0.291832 16.7834Z" fill="#DC402E"/>
<path fill-rule="evenodd" clip-rule="evenodd" d="M0.13923 14.9224C0.0571446 14.9224 0.00263551 14.8442 7.03455e-05 14.7608C-0.00249482 14.6916 0.0654819 14.614 0.140513 14.614C0.147567 14.614 0.154622 14.6146 0.162317 14.6165C0.259793 14.637 0.311096 14.6941 0.305966 14.7788C0.300835 14.8628 0.2335 14.9192 0.143719 14.9224C0.142436 14.9224 0.140512 14.9224 0.13923 14.9224Z" fill="#DC402E"/>
<path fill-rule="evenodd" clip-rule="evenodd" d="M0.198676 14.466L0.0922236 14.4583L0.100561 14.3525L0.206372 14.3602L0.198676 14.466Z" fill="#DC402E"/>
<path fill-rule="evenodd" clip-rule="evenodd" d="M1.00823 14.6275C1.00118 14.6275 0.994126 14.6269 0.987071 14.6263L1.04735 14.5737L0.951159 14.4621C0.903702 14.4627 0.865225 14.4858 0.84791 14.523C0.80366 14.4319 0.817126 14.3511 0.887669 14.2902C0.923582 14.2601 0.964626 14.2453 1.00631 14.2453C1.05826 14.2453 1.11213 14.2678 1.15573 14.3107C1.23141 14.3832 1.20768 14.5031 1.13457 14.5782L1.11277 14.5961L1.09353 14.6173L1.03645 14.625C1.02683 14.6263 1.01721 14.6275 1.00823 14.6275Z" fill="#DC402E"/>
<path fill-rule="evenodd" clip-rule="evenodd" d="M0.530948 13.7083C0.459767 13.7083 0.388586 13.6627 0.346262 13.596C0.292395 13.5108 0.328307 13.3607 0.433476 13.3248C0.470028 13.3126 0.504015 13.3062 0.535437 13.3062C0.610466 13.3062 0.668822 13.3421 0.704733 13.412C0.755393 13.5108 0.716276 13.6198 0.61752 13.6832C0.589945 13.7006 0.560447 13.7083 0.530948 13.7083Z" fill="#DC402E"/>
<path fill-rule="evenodd" clip-rule="evenodd" d="M0.379404 12.9347L0.337093 12.9122L0.35889 12.8699L0.4012 12.8917L0.379404 12.9347Z" fill="#DC402E"/>
<path fill-rule="evenodd" clip-rule="evenodd" d="M0.192903 11.8879L0.176864 11.8693L0.21279 11.8392L0.226263 11.8546L0.192903 11.8879Z" fill="#DC402E"/>
<path fill-rule="evenodd" clip-rule="evenodd" d="M0.555962 11.7245L0.462341 11.7104L0.47709 11.6168L0.570068 11.6316L0.555962 11.7245Z" fill="#DC402E"/>
<path fill-rule="evenodd" clip-rule="evenodd" d="M1.91725 9.9452L1.83004 9.89646L1.87813 9.80989L1.96535 9.85799L1.91725 9.9452Z" fill="#DC402E"/>
<path fill-rule="evenodd" clip-rule="evenodd" d="M0.602479 5.63659C0.570413 5.63659 0.540271 5.62441 0.511411 5.60004C0.449203 5.54746 0.445355 5.46218 0.494737 5.39165C0.519749 5.35574 0.558229 5.34035 0.599273 5.34035C0.635188 5.34035 0.672384 5.35253 0.703809 5.37497C0.764094 5.41729 0.78205 5.52951 0.720483 5.58401C0.680721 5.61863 0.640318 5.63659 0.602479 5.63659Z" fill="#DC402E"/>
<path fill-rule="evenodd" clip-rule="evenodd" d="M0.489951 4.23464L0.488027 4.18911L0.53356 4.18719L0.535484 4.23272L0.489951 4.23464Z" fill="#DC402E"/>
<path fill-rule="evenodd" clip-rule="evenodd" d="M5.59326 12.2225L5.52143 12.1853L5.55927 12.1129L5.6311 12.1507L5.59326 12.2225Z" fill="#DC402E"/>
<path fill-rule="evenodd" clip-rule="evenodd" d="M0.179061 8.42617L0.155337 8.34348L0.239337 8.31976L0.262422 8.40309L0.179061 8.42617Z" fill="#DC402E"/>
<path fill-rule="evenodd" clip-rule="evenodd" d="M1.704 0.91794C1.64564 0.91794 1.59754 0.866633 1.58279 0.806347C1.56804 0.744138 1.61999 0.661405 1.69053 0.661405H1.69117C1.77518 0.662046 1.82649 0.700527 1.83675 0.770433C1.84701 0.839697 1.8002 0.897418 1.72773 0.915375C1.71939 0.917299 1.7117 0.91794 1.704 0.91794Z" fill="#DC402E"/>
<path fill-rule="evenodd" clip-rule="evenodd" d="M5.3739 17.6876L5.35337 17.5863L5.45536 17.5651L5.47589 17.6671L5.3739 17.6876Z" fill="#DC402E"/>
<path fill-rule="evenodd" clip-rule="evenodd" d="M1.74997 19.6652L1.71727 19.5254L1.85703 19.4934L1.88909 19.6325L1.74997 19.6652Z" fill="#DC402E"/>
<path fill-rule="evenodd" clip-rule="evenodd" d="M0.800591 8.57602L0.796744 8.46573L0.907044 8.46189L0.910892 8.57217L0.800591 8.57602Z" fill="#DC402E"/>
<path fill-rule="evenodd" clip-rule="evenodd" d="M4.00654 0.154542L3.93088 0.0763096L4.0091 0L4.08541 0.0788744L4.00654 0.154542Z" fill="#DC402E"/>
<path fill-rule="evenodd" clip-rule="evenodd" d="M0.23322 12.0475L0.13381 11.9474L0.192815 11.8878L0.226165 11.8545L0.23322 11.8468C0.297997 11.857 0.333271 11.8923 0.333271 11.9474C0.333271 12.0026 0.291583 12.0417 0.23322 12.0475Z" fill="#DC402E"/>
<path fill-rule="evenodd" clip-rule="evenodd" d="M0.935667 14.6706C0.868962 14.6552 0.834968 14.6161 0.839458 14.5584C0.840099 14.5456 0.843307 14.534 0.847796 14.5231C0.865114 14.4859 0.903598 14.4628 0.951061 14.4622L1.04727 14.5738L0.986979 14.6264L0.935667 14.6706Z" fill="#DC402E"/>
<path fill-rule="evenodd" clip-rule="evenodd" d="M1.59031 5.54187C1.54991 5.54187 1.51913 5.52199 1.50053 5.4848L1.54927 5.345L1.68843 5.39373L1.64034 5.53354C1.62238 5.53931 1.6057 5.54187 1.59031 5.54187Z" fill="#DC402E"/>
<path fill-rule="evenodd" clip-rule="evenodd" d="M1.0543 8.27826C1.04661 8.27826 1.03891 8.27762 1.03122 8.2757C0.974145 8.2648 0.942083 8.21349 0.947854 8.15321L1.07097 8.07049L1.15306 8.19297C1.13382 8.24877 1.09919 8.27826 1.0543 8.27826Z" fill="#DC402E"/>
<path fill-rule="evenodd" clip-rule="evenodd" d="M0.39958 11.1515C0.390601 11.1515 0.380982 11.1502 0.371362 11.1483C0.316208 11.1336 0.287989 11.0823 0.297609 11.0226L0.422668 10.9489L0.496421 11.0739C0.475257 11.1252 0.441266 11.1515 0.39958 11.1515Z" fill="#DC402E"/>
<path fill-rule="evenodd" clip-rule="evenodd" d="M1.68833 9.6376C1.65499 9.6376 1.61972 9.62606 1.5883 9.60233C1.52417 9.55551 1.52866 9.46381 1.57676 9.39968C1.60048 9.36762 1.64473 9.34902 1.68769 9.34902C1.72232 9.34902 1.75695 9.36056 1.77939 9.38749C1.83967 9.45996 1.84416 9.53179 1.79158 9.59079C1.76336 9.62221 1.72681 9.6376 1.68833 9.6376Z" fill="#DC402E"/>
<path fill-rule="evenodd" clip-rule="evenodd" d="M1.52302 10.4321C1.50121 10.4321 1.47813 10.4251 1.45825 10.4123C1.414 10.3847 1.38129 10.3328 1.39091 10.2802C1.39155 10.2789 1.39155 10.2776 1.3922 10.2757C1.41272 10.1891 1.46274 10.1429 1.53456 10.1429C1.53905 10.1429 1.54354 10.1436 1.54867 10.1436C1.62818 10.1506 1.68013 10.216 1.68077 10.3C1.68141 10.3802 1.60446 10.4321 1.5243 10.4321C1.52366 10.4321 1.52366 10.4321 1.52302 10.4321Z" fill="#DC402E"/>
<path fill-rule="evenodd" clip-rule="evenodd" d="M2.84741 10.6963C2.83074 10.6963 2.81471 10.6931 2.79996 10.6854C2.71532 10.6431 2.68262 10.5789 2.70762 10.5033C2.72814 10.4411 2.78265 10.4058 2.84677 10.4058C2.86088 10.4058 2.87563 10.4077 2.89038 10.4109C2.96797 10.4282 3.00003 10.5155 2.98207 10.5931C2.96989 10.6489 2.90769 10.6963 2.84741 10.6963Z" fill="#DC402E"/>
<path fill-rule="evenodd" clip-rule="evenodd" d="M0.672726 12.9484C0.614374 12.9484 0.571412 12.9202 0.547046 12.8664C0.515626 12.7945 0.547686 12.7195 0.619504 12.6791C0.637458 12.6695 0.656695 12.665 0.67465 12.665C0.72723 12.665 0.778528 12.7009 0.806742 12.7522C0.841369 12.8138 0.809949 12.9177 0.734284 12.9395C0.712482 12.9452 0.691963 12.9484 0.672726 12.9484Z" fill="#DC402E"/>
<path fill-rule="evenodd" clip-rule="evenodd" d="M1.19582 13.1723L1.09641 13.0696C1.10731 13.0049 1.14259 12.9696 1.19646 12.9696C1.19775 12.9696 1.19839 12.9696 1.19967 12.9696C1.25547 12.9709 1.29459 13.0145 1.29908 13.0729L1.19582 13.1723Z" fill="#DC402E"/>
<path fill-rule="evenodd" clip-rule="evenodd" d="M1.03912 10.1572C0.968586 10.1572 0.888434 10.0943 0.892281 10.018C0.897411 9.91798 0.946143 9.85899 1.03014 9.85065C1.03527 9.85001 1.0404 9.85001 1.04617 9.85001C1.12312 9.85001 1.18147 9.90644 1.1975 9.98851C1.21289 10.0719 1.14236 10.1398 1.05964 10.1559C1.05323 10.1572 1.04617 10.1572 1.03912 10.1572Z" fill="#DC402E"/>
<path fill-rule="evenodd" clip-rule="evenodd" d="M0.493326 9.60641L0.367671 9.60064L0.373441 9.475L0.499096 9.48141L0.493326 9.60641Z" fill="#DC402E"/>
<path fill-rule="evenodd" clip-rule="evenodd" d="M0.998379 9.35942L0.9785 9.2613L1.07661 9.24077L1.09777 9.33953L0.998379 9.35942Z" fill="#DC402E"/>
<path fill-rule="evenodd" clip-rule="evenodd" d="M1.24779 9.06824L1.17469 9.00859L1.23369 8.93548L1.30743 8.99512L1.24779 9.06824Z" fill="#DC402E"/>
<path fill-rule="evenodd" clip-rule="evenodd" d="M0.273271 8.89658L0.185426 8.81834L0.264293 8.73048L0.352138 8.80872L0.273271 8.89658Z" fill="#DC402E"/>
<path fill-rule="evenodd" clip-rule="evenodd" d="M0.557909 7.57443L0.459161 7.48145L0.552139 7.38333L0.650886 7.47632C0.643833 7.53852 0.610489 7.57315 0.557909 7.57443Z" fill="#DC402E"/>
<path fill-rule="evenodd" clip-rule="evenodd" d="M0.230811 6.77064L0.167324 6.64174L0.296863 6.57888C0.35522 6.60903 0.378306 6.65456 0.359709 6.70779L0.230811 6.77064Z" fill="#DC402E"/>
<path fill-rule="evenodd" clip-rule="evenodd" d="M0.237545 11.61L0.200348 11.5632L0.247164 11.5253L0.284361 11.5728L0.237545 11.61Z" fill="#DC402E"/>
</g>
</svg>
