<svg width="18" height="4" viewBox="0 0 18 4" fill="none" xmlns="http://www.w3.org/2000/svg">
<mask id="mask0_1_2861" style="mask-type:alpha" maskUnits="userSpaceOnUse" x="-16" y="-8" width="37" height="24">
<path d="M10.9928 15.101C10.4236 15.101 9.8531 15.0225 9.29624 14.8631L-15.7343 8.26688L-12.3418 -4.16118L4.98975 0.790988C5.68211 0.988711 6.39716 0.555016 6.54107 -0.150954L8.05739 -7.60092L20.1555 -5.13748L17.0418 10.1585C16.6989 11.8447 15.6681 13.3105 14.1972 14.2038C13.2215 14.7956 12.1117 15.101 10.9928 15.101Z" fill="white"/>
</mask>
<g mask="url(#mask0_1_2861)">
<path fill-rule="evenodd" clip-rule="evenodd" d="M12.6341 1.25656L12.5978 1.12367L12.7314 1.08736L12.767 1.22091L12.6341 1.25656Z" fill="#EEB745"/>
<path fill-rule="evenodd" clip-rule="evenodd" d="M17.9552 0.0771257L17.9228 0.0324058L17.9676 0L18 0.04472L17.9552 0.0771257Z" fill="#EEB745"/>
<path fill-rule="evenodd" clip-rule="evenodd" d="M13.8018 0.370528L13.6988 0.301175L13.7675 0.198765L13.8706 0.26747L13.8018 0.370528Z" fill="#EEB745"/>
<path fill-rule="evenodd" clip-rule="evenodd" d="M17.691 3.21308L17.6417 3.20207L17.6533 3.15347L17.7013 3.16448L17.691 3.21308Z" fill="#EEB745"/>
<path fill-rule="evenodd" clip-rule="evenodd" d="M4.95441 2.29354L4.93432 2.17816L5.04968 2.15872L5.06912 2.27345L4.95441 2.29354Z" fill="#EEB745"/>
<path fill-rule="evenodd" clip-rule="evenodd" d="M3.68416 3.14979L3.54154 3.11154L3.57979 2.96894C3.60053 2.96051 3.61998 2.95662 3.63748 2.95662C3.67379 2.95662 3.70296 2.97347 3.72241 3.00718L3.68416 3.14979Z" fill="#EEB745"/>
<path fill-rule="evenodd" clip-rule="evenodd" d="M9.29695 2.59453L9.19648 2.54396L9.24704 2.44348L9.34816 2.49405L9.29695 2.59453Z" fill="#EEB745"/>
<path fill-rule="evenodd" clip-rule="evenodd" d="M1.67333 1.49647L1.59877 1.43165L1.66425 1.3571L1.73816 1.42193L1.67333 1.49647Z" fill="#EEB745"/>
<path fill-rule="evenodd" clip-rule="evenodd" d="M5.24632 3.13202L5.1413 3.04514L5.22882 2.94011C5.2917 2.94335 5.32865 2.97383 5.33384 3.02699L5.24632 3.13202Z" fill="#EEB745"/>
<path fill-rule="evenodd" clip-rule="evenodd" d="M0.0388928 2.17402L0 2.17078L0.0025926 2.13127L0.0421332 2.13451L0.0388928 2.17402Z" fill="#EEB745"/>
</g>
</svg>
